<?xml version="1.0" standalone="no"?>
<!DOCTYPE svg PUBLIC "-//W3C//DTD SVG 20010904//EN"
 "http://www.w3.org/TR/2001/REC-SVG-20010904/DTD/svg10.dtd">
<svg version="1.0" xmlns="http://www.w3.org/2000/svg"
 width="1772.000000pt" height="826.000000pt" viewBox="0 0 1772.000000 826.000000"
 preserveAspectRatio="xMidYMid meet">

<g transform="translate(0.000000,826.000000) scale(0.100000,-0.100000)"
fill="#0088FF" stroke="none">
<path d="M8530 8194 c-47 -30 -85 -59 -84 -62 0 -4 4 -19 8 -34 l8 -26 100 34
c56 18 103 35 105 37 5 5 -39 107 -46 107 -3 0 -44 -25 -91 -56z"/>
<path d="M1307 8019 c-63 -15 -96 -37 -119 -82 -20 -36 -23 -57 -23 -142 1
-178 34 -206 259 -226 130 -11 146 -18 146 -69 0 -14 -7 -36 -16 -48 -14 -20
-24 -22 -99 -22 -92 0 -115 11 -115 56 0 24 -1 24 -91 24 l-92 0 6 -56 c8 -80
43 -143 92 -168 35 -18 58 -21 185 -21 161 0 201 9 256 57 40 35 54 79 54 171
0 183 -37 214 -284 236 -108 9 -116 14 -116 73 0 48 18 58 107 58 74 0 93 -10
93 -47 0 -22 3 -23 90 -23 l90 0 0 41 c0 103 -49 168 -140 188 -60 13 -228 13
-283 0z"/>
<path d="M4853 8020 c-60 -13 -118 -45 -143 -80 -41 -57 -50 -112 -50 -295 0
-247 22 -306 132 -356 47 -21 68 -24 183 -24 153 0 204 15 259 75 52 58 61
100 61 305 0 118 -5 195 -13 223 -18 59 -72 117 -130 137 -55 19 -236 29 -299
15z m220 -184 c27 -21 37 -71 37 -191 0 -127 -12 -180 -43 -197 -12 -7 -55
-12 -95 -12 -62 1 -77 4 -95 23 -21 20 -22 30 -22 187 0 162 1 166 24 185 18
15 39 19 100 19 48 -1 83 -6 94 -14z"/>
<path d="M12630 8023 c-99 -17 -146 -47 -183 -117 -20 -37 -22 -58 -25 -238
-3 -159 -1 -207 12 -252 34 -115 89 -147 272 -154 154 -6 215 10 267 67 36 40
42 59 51 164 l5 57 -93 0 -93 0 -7 -37 c-3 -21 -10 -44 -15 -51 -12 -19 -79
-33 -128 -26 -72 10 -78 23 -81 205 -3 158 -3 159 22 184 22 21 34 25 88 25
80 0 108 -17 108 -66 l0 -34 99 0 100 0 -6 58 c-16 179 -73 224 -281 221 -48
-1 -98 -4 -112 -6z"/>
<path d="M14170 8024 c-106 -21 -159 -58 -194 -134 -17 -38 -21 -70 -24 -216
-6 -258 17 -328 126 -381 54 -26 64 -28 192 -28 125 0 139 2 192 27 64 30 101
76 117 148 6 25 11 117 11 205 0 241 -21 300 -125 350 -48 24 -70 28 -163 30
-59 2 -118 1 -132 -1z m201 -193 c23 -18 24 -25 27 -179 3 -156 3 -160 -21
-187 -22 -26 -29 -28 -98 -29 -89 0 -115 12 -129 62 -13 47 -13 246 0 291 14
50 35 60 121 61 61 0 82 -4 100 -19z"/>
<path d="M15470 8024 c-107 -21 -167 -65 -195 -143 -18 -52 -22 -402 -4 -464
5 -21 24 -54 42 -74 49 -55 103 -75 226 -81 176 -8 275 29 323 121 21 38 23
59 26 234 3 154 1 202 -12 247 -33 114 -106 157 -276 162 -58 1 -116 0 -130
-2z m205 -199 c24 -23 25 -28 25 -179 0 -147 -1 -156 -23 -181 -20 -23 -31
-27 -87 -28 -136 -4 -145 9 -145 215 l0 150 28 24 c24 21 38 24 103 24 66 0
78 -3 99 -25z"/>
<path d="M16170 8016 c-69 -15 -89 -26 -128 -70 -48 -55 -56 -99 -56 -306 -1
-214 11 -268 70 -319 51 -46 101 -56 264 -56 135 0 149 2 195 25 28 14 57 38
67 55 23 40 38 140 38 253 l0 92 -160 0 -161 0 3 -67 3 -68 64 -3 63 -3 -5
-42 c-8 -60 -33 -77 -117 -77 -84 0 -96 4 -118 44 -13 25 -17 58 -16 173 0
196 12 213 144 213 57 0 74 -4 90 -20 11 -11 20 -27 20 -35 0 -12 17 -15 96
-15 l96 0 -6 48 c-16 112 -56 162 -146 181 -66 14 -230 13 -300 -3z"/>
<path d="M20 7640 l0 -380 90 0 90 0 0 380 0 380 -90 0 -90 0 0 -380z"/>
<path d="M350 7640 l0 -380 92 0 91 0 -7 295 c-3 162 -4 295 -2 295 2 0 49
-133 103 -295 l98 -295 157 0 158 0 0 380 0 380 -93 0 -94 0 5 -267 c2 -148 3
-277 0 -288 -2 -11 -38 83 -82 215 -43 129 -87 259 -98 288 l-19 52 -155 0
-154 0 0 -380z"/>
<path d="M1820 7935 l0 -85 85 0 85 0 2 -292 3 -293 93 -3 92 -3 0 296 0 295
90 0 90 0 0 85 0 85 -270 0 -270 0 0 -85z"/>
<path d="M2452 7643 l3 -378 90 0 90 0 3 378 2 377 -95 0 -95 0 2 -377z"/>
<path d="M2730 7935 l0 -85 85 0 85 0 2 -292 3 -293 93 -3 92 -3 0 296 0 295
90 0 90 0 0 85 0 85 -270 0 -270 0 0 -85z"/>
<path d="M3360 7763 c1 -389 9 -424 106 -473 45 -23 60 -25 184 -25 156 0 210
15 259 70 44 51 51 105 51 410 l0 275 -95 0 -95 0 0 -269 c0 -148 -3 -276 -6
-285 -9 -23 -79 -39 -135 -31 -80 11 -79 9 -79 317 l0 268 -95 0 -95 0 0 -257z"/>
<path d="M4050 7935 l0 -85 90 0 90 0 0 -295 0 -295 90 0 90 0 0 295 0 295 95
0 95 0 0 85 0 85 -275 0 -275 0 0 -85z"/>
<path d="M5830 7640 l0 -380 91 0 91 0 -7 273 c-4 149 -9 281 -12 292 -3 13
-2 17 5 10 5 -5 48 -136 95 -290 l84 -280 76 -3 c65 -2 77 0 85 15 5 10 44
137 87 283 74 250 104 331 91 250 -3 -19 -8 -151 -11 -292 l-6 -258 90 0 91 0
0 380 0 380 -150 0 c-82 0 -150 -2 -150 -5 0 -4 -45 -180 -111 -429 -6 -21
-13 -36 -15 -33 -3 3 -34 108 -68 234 l-63 228 -147 3 -146 3 0 -381z"/>
<path d="M6867 7662 c-54 -196 -100 -367 -104 -379 -5 -23 -4 -23 90 -23 l96
0 11 43 c26 101 11 92 148 95 l121 3 16 -58 c9 -32 18 -64 20 -70 6 -17 185
-18 185 -2 0 7 -46 178 -102 380 l-101 369 -141 0 -141 0 -98 -358z m286 41
c21 -78 37 -146 37 -152 0 -7 -29 -11 -80 -11 -55 0 -80 4 -80 12 0 27 75 307
81 300 3 -4 22 -71 42 -149z"/>
<path d="M7530 7763 c1 -389 9 -424 106 -473 45 -23 60 -25 189 -25 129 0 144
2 190 25 58 29 89 71 104 141 6 29 11 165 11 319 l0 270 -95 0 -95 0 0 -269
c0 -148 -3 -276 -6 -285 -9 -22 -80 -39 -133 -31 -84 12 -81 2 -81 312 l0 273
-95 0 -95 0 0 -257z"/>
<path d="M8312 7648 c-56 -206 -102 -377 -102 -381 0 -4 42 -7 94 -7 l94 0 17
70 17 70 123 0 122 0 19 -67 20 -68 93 -3 93 -3 -7 28 c-3 15 -50 186 -103
378 l-97 350 -141 3 -141 3 -101 -373z m292 45 c20 -78 36 -144 36 -147 0 -9
-158 -7 -163 2 -7 14 76 314 84 300 4 -8 24 -78 43 -155z"/>
<path d="M9382 7643 l3 -378 220 0 c249 0 290 9 344 71 48 54 56 98 56 309 0
213 -6 244 -62 306 -55 60 -98 69 -350 69 l-213 0 2 -377z m415 184 c16 -16
18 -38 18 -178 l0 -161 -28 -24 c-25 -22 -37 -24 -123 -24 l-94 0 0 206 0 206
105 -4 c84 -2 108 -7 122 -21z"/>
<path d="M10140 7640 l0 -380 250 0 250 0 0 85 0 85 -160 0 -160 0 0 75 0 75
150 0 150 0 0 70 0 70 -150 0 -150 0 0 70 0 70 160 0 160 0 0 80 0 80 -250 0
-250 0 0 -380z"/>
<path d="M11150 7935 l0 -85 90 0 90 0 0 -295 0 -295 90 0 90 0 0 295 0 295
95 0 95 0 0 85 0 85 -275 0 -275 0 0 -85z"/>
<path d="M11790 7640 l0 -380 250 0 250 0 0 85 0 85 -160 0 -160 0 0 75 0 75
150 0 150 0 0 70 0 70 -150 0 -150 0 0 70 0 70 160 0 160 0 0 80 0 80 -250 0
-250 0 0 -380z"/>
<path d="M13142 7643 l3 -378 93 -3 92 -3 -6 291 c-4 159 -5 290 -1 290 3 0
49 -130 102 -290 l97 -290 154 0 154 0 0 380 0 380 -91 0 -92 0 7 -290 c4
-159 5 -290 3 -290 -3 0 -49 131 -102 290 l-98 290 -159 0 -158 0 2 -377z"/>
<path d="M14710 7640 l0 -380 233 2 232 3 3 88 3 87 -146 0 -145 0 0 290 0
290 -90 0 -90 0 0 -380z"/>
<path d="M16740 7640 l0 -381 93 3 92 3 3 378 2 377 -95 0 -95 0 0 -380z"/>
<path d="M17200 7978 c-7 -24 -52 -189 -101 -368 -49 -178 -89 -330 -89 -338
0 -10 21 -12 92 -10 102 3 92 -5 118 96 l11 42 119 0 c135 0 128 4 150 -87
l12 -53 94 0 c52 0 94 1 94 3 0 1 -47 171 -104 377 l-103 375 -141 3 -141 3
-11 -43z m195 -258 c20 -80 38 -153 41 -162 5 -16 -3 -18 -80 -18 -47 0 -86 3
-86 6 0 13 83 324 86 321 1 -1 19 -67 39 -147z"/>
<path d="M0 3085 l0 -3085 3080 0 3080 0 0 3085 0 3085 -3080 0 -3080 0 0
-3085z m3385 3024 c1028 -101 1952 -744 2415 -1684 161 -326 245 -603 297
-975 23 -173 23 -567 0 -740 -35 -251 -90 -472 -174 -700 -48 -131 -188 -414
-267 -538 -483 -763 -1247 -1264 -2139 -1404 -124 -19 -181 -22 -442 -22 -337
0 -453 12 -720 78 -855 211 -1571 773 -1983 1556 -302 574 -410 1257 -301
1905 106 635 410 1211 881 1670 162 159 258 237 448 363 585 390 1275 561
1985 491z"/>
<path d="M940 3080 l0 -2140 2135 0 2135 0 0 2140 0 2140 -2135 0 -2135 0 0
-2140z m2345 2100 c974 -107 1743 -848 1880 -1812 17 -121 20 -416 5 -538 -66
-528 -334 -1022 -739 -1362 -529 -443 -1225 -601 -1887 -429 -745 195 -1331
787 -1518 1537 -61 244 -78 555 -42 798 68 468 280 883 622 1217 339 329 772
534 1244 588 107 12 329 13 435 1z"/>
<path d="M7630 5745 l0 -425 5045 0 5045 0 0 425 0 425 -5045 0 -5045 0 0
-425z"/>
<path d="M16665 4793 c-60 -36 -196 -117 -302 -179 l-192 -114 42 -90 c22 -49
45 -90 50 -90 14 0 651 202 659 209 7 6 -133 331 -142 330 -3 0 -54 -30 -115
-66z"/>
<path d="M7800 3045 l0 -1125 301 0 300 0 -6 128 c-6 137 -55 1512 -55 1562 0
16 4 30 9 30 5 0 138 -387 296 -860 l287 -860 257 0 257 0 285 860 c173 524
289 860 296 860 10 0 12 -25 7 -102 -6 -133 -54 -1500 -54 -1567 l0 -51 298 2
297 3 3 1123 2 1122 -488 0 -488 0 -204 -705 c-112 -388 -209 -705 -215 -705
-6 0 -95 280 -198 623 -103 342 -199 659 -213 705 l-25 82 -475 0 -474 0 0
-1125z"/>
<path d="M11455 4158 c-21 -64 -665 -2217 -665 -2226 0 -9 80 -12 309 -12
l308 0 55 193 55 192 404 0 404 0 36 -120 c21 -66 47 -153 59 -192 l22 -73
304 0 c286 0 305 1 300 18 -3 9 -154 508 -336 1107 -182 600 -333 1098 -336
1108 -5 16 -36 17 -460 17 -355 0 -456 -3 -459 -12z m615 -940 c71 -252 130
-460 130 -463 0 -3 -124 -5 -275 -5 -151 0 -275 2 -275 4 0 5 254 911 267 951
8 25 -7 72 153 -487z"/>
<path d="M13272 3288 c4 -874 4 -884 26 -961 67 -238 194 -335 517 -394 114
-20 583 -29 726 -13 370 40 551 172 631 457 22 77 23 86 26 936 l3 857 -300 0
-300 0 -3 -802 c-3 -888 1 -834 -67 -891 -43 -36 -110 -47 -286 -47 -240 0
-308 22 -351 114 l-24 51 0 788 0 787 -300 0 -301 0 3 -882z"/>
<path d="M16066 4088 c-120 -398 -646 -2156 -646 -2161 0 -4 139 -7 309 -7
286 0 310 1 315 18 3 9 19 67 36 127 17 61 40 140 51 178 l20 67 403 0 403 0
53 -177 c29 -98 57 -186 62 -195 8 -17 33 -18 309 -18 l301 0 -7 28 c-3 15
-156 520 -339 1122 l-334 1095 -455 3 -456 2 -25 -82z m634 -861 c73 -257 131
-470 128 -472 -3 -3 -127 -4 -275 -3 l-270 3 127 455 c69 250 130 468 134 485
6 22 10 26 15 15 4 -8 68 -225 141 -483z"/>
<path d="M7630 420 l0 -420 5045 0 5045 0 0 420 0 420 -5045 0 -5045 0 0 -420z"/>
</g>
</svg>
